<svg xmlns="http://www.w3.org/2000/svg" width="980" height="680" viewBox="0 0 980 680" overflow="hidden">
  <rect width="100%" height="100%" fill="white"/>
  <text x="490" y="28" text-anchor="middle" font-family="sans-serif" font-size="16">
    MQOM L1 F16 fast R5 signing — detailed breakdown (Megacycles)
  </text>

  <!-- Geometry: left=140, right=960 => width=820px; max=200 Mc => 1 Mc = 4.1px -->
  <!-- Bars top=70, axis_y=240 -->

  <!-- X axis -->
  <line x1="140" y1="240" x2="960" y2="240" stroke="#000" stroke-width="1"/>

  <!-- Grid + ticks (0..200 step 20) -->
  <g font-family="sans-serif" font-size="11">
    <line x1="140" y1="70" x2="140" y2="240" stroke="#e6e6e6"/><line x1="140" y1="240" x2="140" y2="246" stroke="#000"/><text x="140" y="262" text-anchor="middle">0</text>
    <line x1="222" y1="70" x2="222" y2="240" stroke="#e6e6e6"/><line x1="222" y1="240" x2="222" y2="246" stroke="#000"/><text x="222" y="262" text-anchor="middle">20</text>
    <line x1="304" y1="70" x2="304" y2="240" stroke="#e6e6e6"/><line x1="304" y1="240" x2="304" y2="246" stroke="#000"/><text x="304" y="262" text-anchor="middle">40</text>
    <line x1="386" y1="70" x2="386" y2="240" stroke="#e6e6e6"/><line x1="386" y1="240" x2="386" y2="246" stroke="#000"/><text x="386" y="262" text-anchor="middle">60</text>
    <line x1="468" y1="70" x2="468" y2="240" stroke="#e6e6e6"/><line x1="468" y1="240" x2="468" y2="246" stroke="#000"/><text x="468" y="262" text-anchor="middle">80</text>
    <line x1="550" y1="70" x2="550" y2="240" stroke="#e6e6e6"/><line x1="550" y1="240" x2="550" y2="246" stroke="#000"/><text x="550" y="262" text-anchor="middle">100</text>
    <line x1="632" y1="70" x2="632" y2="240" stroke="#e6e6e6"/><line x1="632" y1="240" x2="632" y2="246" stroke="#000"/><text x="632" y="262" text-anchor="middle">120</text>
    <line x1="714" y1="70" x2="714" y2="240" stroke="#e6e6e6"/><line x1="714" y1="240" x2="714" y2="246" stroke="#000"/><text x="714" y="262" text-anchor="middle">140</text>
    <line x1="796" y1="70" x2="796" y2="240" stroke="#e6e6e6"/><line x1="796" y1="240" x2="796" y2="246" stroke="#000"/><text x="796" y="262" text-anchor="middle">160</text>
    <line x1="878" y1="70" x2="878" y2="240" stroke="#e6e6e6"/><line x1="878" y1="240" x2="878" y2="246" stroke="#000"/><text x="878" y="262" text-anchor="middle">180</text>
    <line x1="960" y1="70" x2="960" y2="240" stroke="#e6e6e6"/><line x1="960" y1="240" x2="960" y2="246" stroke="#000"/><text x="960" y="262" text-anchor="middle">200</text>
  </g>

  <!-- Colors (13 segments): 6x BLC greys, 6x PIOP blues, 1x PoW orange -->
  <!-- #f0f0f0 #d9d9d9 #bdbdbd #969696 #737373 #525252 #c6dbef #9ecae1 #6baed6 #4292c6 #2171b5 #08519c #fdae6b -->

  <!-- Bars: y=80,120,160,200 ; bar_h=20 ; gap=20 -->
  <!-- Data is exactly from your TikZ coordinates; width = value * 4.1 -->

  <!-- LUT -->
  <text x="130" y="95" text-anchor="end" font-family="sans-serif" font-size="13">LUT</text>
  <rect x="140.0" y="80" width="21.2258189" height="20" fill="#f0f0f0" stroke="#333" stroke-width="0.5"/>
  <rect x="161.2258189" y="80" width="32.0337378" height="20" fill="#d9d9d9" stroke="#333" stroke-width="0.5"/>
  <rect x="193.2595567" y="80" width="41.8343217" height="20" fill="#bdbdbd" stroke="#333" stroke-width="0.5"/>
  <rect x="235.0938784" y="80" width="46.6582501" height="20" fill="#969696" stroke="#333" stroke-width="0.5"/>
  <rect x="281.7521285" y="80" width="9.0086922" height="20" fill="#737373" stroke="#333" stroke-width="0.5"/>
  <rect x="290.7608207" y="80" width="0.7373686" height="20" fill="#525252" stroke="#333" stroke-width="0.5"/>
  <rect x="291.4981893" y="80" width="20.1880556" height="20" fill="#c6dbef" stroke="#333" stroke-width="0.5"/>
  <rect x="311.6862449" y="80" width="0.1413106" height="20" fill="#9ecae1" stroke="#333" stroke-width="0.5"/>
  <rect x="311.8275555" y="80" width="45.2184736" height="20" fill="#6baed6" stroke="#333" stroke-width="0.5"/>
  <rect x="357.0460291" y="80" width="0.9273503" height="20" fill="#4292c6" stroke="#333" stroke-width="0.5"/>
  <rect x="357.9733794" y="80" width="6.6014592" height="20" fill="#2171b5" stroke="#333" stroke-width="0.5"/>
  <rect x="364.5748386" y="80" width="1.3183181" height="20" fill="#08519c" stroke="#333" stroke-width="0.5"/>
  <rect x="365.8931567" y="80" width="32.9761606" height="20" fill="#fdae6b" stroke="#333" stroke-width="0.5"/>
  <text x="406.0" y="95" text-anchor="start" font-family="sans-serif" font-size="11">63.14 Mc</text>

  <!-- Balanced -->
  <text x="130" y="135" text-anchor="end" font-family="sans-serif" font-size="13">Balanced</text>
  <rect x="140.0" y="120" width="40.2085647" height="20" fill="#f0f0f0" stroke="#333" stroke-width="0.5"/>
  <rect x="180.2085647" y="120" width="58.2874122" height="20" fill="#d9d9d9" stroke="#333" stroke-width="0.5"/>
  <rect x="238.4959769" y="120" width="75.3362085" height="20" fill="#bdbdbd" stroke="#333" stroke-width="0.5"/>
  <rect x="313.8321854" y="120" width="46.654056" height="20" fill="#969696" stroke="#333" stroke-width="0.5"/>
  <rect x="360.4862414" y="120" width="11.0679127" height="20" fill="#737373" stroke="#333" stroke-width="0.5"/>
  <rect x="371.5541541" y="120" width="3.0920851" height="20" fill="#525252" stroke="#333" stroke-width="0.5"/>
  <rect x="374.6462392" y="120" width="20.1689332" height="20" fill="#c6dbef" stroke="#333" stroke-width="0.5"/>
  <rect x="394.8151724" y="120" width="0.1422659" height="20" fill="#9ecae1" stroke="#333" stroke-width="0.5"/>
  <rect x="394.9574383" y="120" width="45.0265075" height="20" fill="#6baed6" stroke="#333" stroke-width="0.5"/>
  <rect x="439.9839458" y="120" width="0.9270879" height="20" fill="#4292c6" stroke="#333" stroke-width="0.5"/>
  <rect x="440.9110337" y="120" width="6.5812451" height="20" fill="#2171b5" stroke="#333" stroke-width="0.5"/>
  <rect x="447.4922788" y="120" width="1.463409" height="20" fill="#08519c" stroke="#333" stroke-width="0.5"/>
  <rect x="448.9556878" y="120" width="32.9714538" height="20" fill="#fdae6b" stroke="#333" stroke-width="0.5"/>
  <text x="489.0" y="135" text-anchor="start" font-family="sans-serif" font-size="11">83.40 Mc</text>

  <!-- Memory -->
  <text x="130" y="175" text-anchor="end" font-family="sans-serif" font-size="13">Memory</text>
  <rect x="140.0" y="160" width="105.5566197" height="20" fill="#f0f0f0" stroke="#333" stroke-width="0.5"/>
  <rect x="245.5566197" y="160" width="198.5802651" height="20" fill="#d9d9d9" stroke="#333" stroke-width="0.5"/>
  <rect x="444.1368848" y="160" width="202.5463714" height="20" fill="#bdbdbd" stroke="#333" stroke-width="0.5"/>
  <rect x="646.6832562" y="160" width="49.7256121" height="20" fill="#969696" stroke="#333" stroke-width="0.5"/>
  <rect x="696.4088683" y="160" width="12.7597818" height="20" fill="#737373" stroke="#333" stroke-width="0.5"/>
  <rect x="709.1686501" y="160" width="3.438133" height="20" fill="#525252" stroke="#333" stroke-width="0.5"/>
  <rect x="712.6067831" y="160" width="40.1374584" height="20" fill="#c6dbef" stroke="#333" stroke-width="0.5"/>
  <rect x="752.7442415" y="160" width="0.1413065" height="20" fill="#9ecae1" stroke="#333" stroke-width="0.5"/>
  <rect x="752.885548" y="160" width="90.2703599" height="20" fill="#6baed6" stroke="#333" stroke-width="0.5"/>
  <rect x="843.1559079" y="160" width="48.1193138" height="20" fill="#4292c6" stroke="#333" stroke-width="0.5"/>
  <rect x="891.2752217" y="160" width="17.7051817" height="20" fill="#2171b5" stroke="#333" stroke-width="0.5"/>
  <rect x="908.9804034" y="160" width="1.4443029" height="20" fill="#08519c" stroke="#333" stroke-width="0.5"/>
  <rect x="910.4247063" y="160" width="32.9708552" height="20" fill="#fdae6b" stroke="#333" stroke-width="0.5"/>
  <text x="951.0" y="175" text-anchor="start" font-family="sans-serif" font-size="11">195.95 Mc</text>

  <!-- Hardware -->
  <text x="130" y="215" text-anchor="end" font-family="sans-serif" font-size="13">Hardware</text>
  <rect x="140.0" y="200" width="18.6427697" height="20" fill="#f0f0f0" stroke="#333" stroke-width="0.5"/>
  <rect x="158.6427697" y="200" width="22.9530382" height="20" fill="#d9d9d9" stroke="#333" stroke-width="0.5"/>
  <rect x="181.5958079" y="200" width="26.2219354" height="20" fill="#bdbdbd" stroke="#333" stroke-width="0.5"/>
  <rect x="207.8177433" y="200" width="49.7727126" height="20" fill="#969696" stroke="#333" stroke-width="0.5"/>
  <rect x="257.5904559" y="200" width="13.0613372" height="20" fill="#737373" stroke="#333" stroke-width="0.5"/>
  <rect x="270.6517931" y="200" width="0.3878641" height="20" fill="#525252" stroke="#333" stroke-width="0.5"/>
  <rect x="271.0396572" y="200" width="15.7057142" height="20" fill="#c6dbef" stroke="#333" stroke-width="0.5"/>
  <rect x="286.7453714" y="200" width="0.1428891" height="20" fill="#9ecae1" stroke="#333" stroke-width="0.5"/>
  <rect x="286.8882605" y="200" width="45.847512" height="20" fill="#6baed6" stroke="#333" stroke-width="0.5"/>
  <rect x="332.7357725" y="200" width="0.9285393" height="20" fill="#4292c6" stroke="#333" stroke-width="0.5"/>
  <rect x="333.6643118" y="200" width="6.873112" height="20" fill="#2171b5" stroke="#333" stroke-width="0.5"/>
  <rect x="340.5374238" y="200" width="1.4655942" height="20" fill="#08519c" stroke="#333" stroke-width="0.5"/>
  <rect x="342.003018" y="200" width="33.1270898" height="20" fill="#fdae6b" stroke="#333" stroke-width="0.5"/>
  <text x="383.0" y="215" text-anchor="start" font-family="sans-serif" font-size="11">57.35 Mc</text>

  <!-- Axis label -->
  <text x="550" y="286" text-anchor="middle" font-family="sans-serif" font-size="12">Megacycles (Mc)</text>

  <!-- Legend -->
  <g font-family="sans-serif" font-size="11">
    <text x="140" y="320" font-size="12" font-weight="bold">Legend</text>

    <rect x="140" y="336" width="12" height="12" fill="#f0f0f0" stroke="#333"/><text x="158" y="346">BLC.Trees</text>
    <rect x="413" y="336" width="12" height="12" fill="#d9d9d9" stroke="#333"/><text x="431" y="346">BLC.SeedCommit</text>
    <rect x="686" y="336" width="12" height="12" fill="#bdbdbd" stroke="#333"/><text x="704" y="346">BLC.PRG</text>

    <rect x="140" y="358" width="12" height="12" fill="#969696" stroke="#333"/><text x="158" y="368">BLC.XOF</text>
    <rect x="413" y="358" width="12" height="12" fill="#737373" stroke="#333"/><text x="431" y="368">BLC.Arith</text>
    <rect x="686" y="358" width="12" height="12" fill="#525252" stroke="#333"/><text x="704" y="368">BLC.Open</text>

    <rect x="140" y="392" width="12" height="12" fill="#c6dbef" stroke="#333"/><text x="158" y="402">PIOP.ExpandMQ</text>
    <rect x="413" y="392" width="12" height="12" fill="#9ecae1" stroke="#333"/><text x="431" y="402">PIOP.ExpandBatch</text>
    <rect x="686" y="392" width="12" height="12" fill="#6baed6" stroke="#333"/><text x="704" y="402">PIOP.MatMult</text>

    <rect x="140" y="414" width="12" height="12" fill="#4292c6" stroke="#333"/><text x="158" y="424">PIOP.t1</text>
    <rect x="413" y="414" width="12" height="12" fill="#2171b5" stroke="#333"/><text x="431" y="424">PIOP.P(z,i)</text>
    <rect x="686" y="414" width="12" height="12" fill="#08519c" stroke="#333"/><text x="704" y="424">PIOP.Batch</text>

    <rect x="140" y="448" width="12" height="12" fill="#fdae6b" stroke="#333"/><text x="158" y="458">PoW</text>
  </g>

  <text x="140" y="505" font-family="sans-serif" font-size="11" fill="#444">
    Scale: 0–200 Mc (1 Mc = 4.1 px). Bars are stacked left-to-right.
  </text>
</svg>
